<svg width="97" height="88" viewBox="0 0 97 88" fill="currentColor" xmlns="http://www.w3.org/2000/svg">
  <path d="M62.3344 88C86.1869 58.029 97 37.942 97 24.5507C97 17.2174 93.8197 12.116 85.5508 6.69566L75.6918 0L57.882 22.3188L68.6951 29.971C73.1475 33.1594 74.7377 36.029 74.7377 39.8551C74.7377 47.8261 67.1049 63.1304 50.5672 82.2609L62.3344 88ZM11.7672 88C35.6197 58.029 46.4328 37.942 46.4328 24.5507C46.4328 17.2174 43.2525 12.116 34.9836 6.69566L25.1246 0L7.31475 22.3188L18.1279 29.971C22.5803 33.1594 24.1705 36.029 24.1705 39.8551C24.1705 47.8261 16.5377 63.1304 0 82.2609L11.7672 88Z"/>
</svg>
