<svg xmlns="http://www.w3.org/2000/svg" height="24px" viewBox="0 0 24 24" width="24px" fill="currentColor">
<path d="M20.5,3.5a12,12,0,0,0-17,17,12,12,0,0,0,17-17Zm-.7,16.3a10.9,10.9,0,0,1-15.6,0,10.9,10.9,0,0,1,0-15.6,10.9,10.9,0,0,1,15.6,0,10.9,10.9,0,0,1,0,15.6Zm-2.4-3.4v-4c0-2.1-1.1-3.1-2.6-3.1a2.2,2.2,0,0,0-2.1,1.1v-1H10.3c.1.7,0,7,0,7h2.4V12a1.3,1.3,0,0,1,1.2-.9c.9,0,1.2.7,1.2,1.6v3.7ZM7.9,8.5A1.2,1.2,0,0,0,9.2,7.3,1.2,1.2,0,0,0,7.9,6.1,1.2,1.2,0,0,0,6.6,7.3,1.2,1.2,0,0,0,7.9,8.5ZM9,16.4v-7H6.7v7Z"/>
</svg>
