<svg xmlns="http://www.w3.org/2000/svg" height="24px" viewBox="0 0 24 24" width="24px" fill="currentColor">
<path d="M16.5,6.1H7.6A1.5,1.5,0,0,0,6.1,7.6v8.9A1.5,1.5,0,0,0,7.6,18h8.9A1.5,1.5,0,0,0,18,16.5V7.6A1.5,1.5,0,0,0,16.5,6.1ZM12,9.7a2.5,2.5,0,0,1,2.5,2.2h0A2.6,2.6,0,0,1,12,14.4,2.4,2.4,0,0,1,9.7,12h0A2.4,2.4,0,0,1,12,9.7Zm4.5,6.4c0,.3-.1.4-.4.4H8c-.3,0-.4-.1-.4-.4V10.9l.9.2c0,.4-.1.7-.1,1a3.6,3.6,0,0,0,3.5,3.6H12a3.8,3.8,0,0,0,3.8-3.5h0c-.1-.3-.1-.6-.2-1l.9-.2Zm0-6.7a.4.4,0,0,1-.4.4H14.7c-.3,0-.4-.1-.4-.4V8a.4.4,0,0,1,.4-.4h1.4a.4.4,0,0,1,.4.4Zm4.1-5.9a12.1,12.1,0,1,0,0,17.1A12.1,12.1,0,0,0,20.6,3.5Zm-.7,16.4a11,11,0,0,1-15.5.2c-.1-.1-.1-.2-.2-.2A11,11,0,0,1,4,4.4l.2-.2A11,11,0,0,1,19.7,4l.2.2a11,11,0,0,1,.2,15.5Z" transform="translate(0 0)"/>
</svg>
