<svg xmlns="http://www.w3.org/2000/svg" height="24px" viewBox="0 0 24 24" width="24px" fill="currentColor">
<path d="M13.5,7.2a2.5,2.5,0,0,0-1.7,2.5v.4h-.5A7.1,7.1,0,0,1,7.3,8l-.6-.5v.4a2.7,2.7,0,0,0,.5,2.6c.4.3.3.4-.3.2H6.4c-.1,0,.1.8.3,1.1a2.8,2.8,0,0,0,1.2,1.2l.4.2H7.8c-.5,0-.5,0-.4.2A2.5,2.5,0,0,0,9,14.7l.5.2-.5.3a4.4,4.4,0,0,1-2.3.6H6a4.7,4.7,0,0,0,1.7.7,7.1,7.1,0,0,0,5.7-.6,7.8,7.8,0,0,0,2.8-3.4,8.8,8.8,0,0,0,.6-2.6c0-.4,0-.5.5-.9l.6-.7c.1-.2.1-.2-.3,0s-.9.2-.5-.2a2.7,2.7,0,0,0,.6-.9h-.3l-.8.3h-.4l-.4-.3L15,7.1A2.6,2.6,0,0,0,13.5,7.2Zm7-3.7a12,12,0,0,0-17,17,12,12,0,0,0,17-17Zm-.7,16.3a10.9,10.9,0,0,1-15.6,0,10.9,10.9,0,0,1,0-15.6,10.9,10.9,0,0,1,15.6,0,10.9,10.9,0,0,1,0,15.6Z"/>
</svg>
