<svg xmlns="http://www.w3.org/2000/svg" width="189" height="40" viewBox="0 0 189 40" fill="none">
<path d="M23.75 11.1283C23.75 10.5364 24.0601 10.0013 24.4187 9.53039C24.7868 9.0469 25 8.4734 25 7.8584C25 6.13251 23.3211 4.7334 21.25 4.7334C19.1789 4.7334 17.5 6.13251 17.5 7.8584C17.5 8.4734 17.7132 9.0469 18.0813 9.53039C18.4399 10.0013 18.75 10.5364 18.75 11.1283C18.75 11.7304 18.2569 12.2167 17.6551 12.1993C15.3156 12.132 13.0014 11.9641 10.7165 11.7001C11.0271 14.388 11.2045 17.1165 11.2419 19.8788C11.2501 20.4888 10.7549 20.9833 10.1449 20.9834C9.55297 20.9834 9.01794 20.6733 8.547 20.3147C8.0635 19.9466 7.49 19.7334 6.875 19.7334C5.14911 19.7334 3.75 21.4123 3.75 23.4834C3.75 25.5545 5.14911 27.2334 6.875 27.2334C7.49 27.2334 8.0635 27.0202 8.547 26.6521C9.01794 26.2935 9.55297 25.9834 10.1449 25.9834C10.6602 25.9834 11.0693 26.418 11.0315 26.932C10.8218 29.7853 10.4624 32.5971 9.96113 35.3594C12.491 35.6762 15.0575 35.8748 17.6551 35.9496C18.2571 35.9669 18.7502 35.4806 18.7502 34.8784C18.7502 34.2864 18.4401 33.7514 18.0815 33.2805C17.7134 32.797 17.5002 32.2235 17.5002 31.6085C17.5002 29.8826 19.1791 28.4835 21.2502 28.4835C23.3213 28.4835 25.0002 29.8826 25.0002 31.6085C25.0002 32.2235 24.787 32.797 24.4189 33.2805C24.0603 33.7514 23.7502 34.2864 23.7502 34.8784C23.7502 35.4332 24.2136 35.8762 24.7674 35.8436C27.8321 35.6636 30.8503 35.3109 33.8127 34.7954C34.2618 32.215 34.5872 29.5921 34.7827 26.9331C34.8205 26.4186 34.411 25.9835 33.8951 25.9835C33.3032 25.9835 32.7681 26.2936 32.2972 26.6522C31.8137 27.0203 31.2402 27.2335 30.6252 27.2335C28.8993 27.2335 27.5002 25.5545 27.5002 23.4835C27.5002 21.4124 28.8993 19.7335 30.6252 19.7335C31.2402 19.7335 31.8137 19.9467 32.2972 20.3148C32.7681 20.6734 33.3032 20.9835 33.8951 20.9835C34.5056 20.9835 35.0014 20.4885 34.9931 19.878C34.9522 16.8569 34.7438 13.8763 34.3769 10.945C31.2338 11.5153 28.0267 11.902 24.7671 12.0935C24.2133 12.126 23.75 11.6831 23.75 11.1283Z" fill="#7DE2E3"/>
<path d="M61.696 32.2474C60.272 32.2474 59.152 31.9674 58.336 31.4074C57.536 30.8474 56.976 30.0874 56.656 29.1274C56.336 28.1514 56.176 27.0314 56.176 25.7674V18.8314C56.176 17.5034 56.336 16.3514 56.656 15.3754C56.976 14.3994 57.536 13.6474 58.336 13.1194C59.152 12.5914 60.272 12.3274 61.696 12.3274C63.04 12.3274 64.088 12.5594 64.84 13.0234C65.608 13.4714 66.152 14.1194 66.472 14.9674C66.792 15.8154 66.952 16.7994 66.952 17.9194V19.5514H63.544V17.8714C63.544 17.3274 63.512 16.8314 63.448 16.3834C63.4 15.9354 63.248 15.5834 62.992 15.3274C62.752 15.0554 62.328 14.9194 61.72 14.9194C61.112 14.9194 60.664 15.0634 60.376 15.3514C60.104 15.6234 59.928 15.9994 59.848 16.4794C59.768 16.9434 59.728 17.4714 59.728 18.0634V26.5114C59.728 27.2154 59.784 27.7994 59.896 28.2634C60.008 28.7114 60.208 29.0554 60.496 29.2954C60.8 29.5194 61.208 29.6314 61.72 29.6314C62.312 29.6314 62.728 29.4954 62.968 29.2234C63.224 28.9354 63.384 28.5594 63.448 28.0954C63.512 27.6314 63.544 27.1114 63.544 26.5354V24.7834H66.952V26.3434C66.952 27.4954 66.8 28.5194 66.496 29.4154C66.192 30.2954 65.656 30.9914 64.888 31.5034C64.136 31.9994 63.072 32.2474 61.696 32.2474ZM73.4089 32.1994C72.4009 32.1994 71.5689 32.0154 70.9129 31.6474C70.2569 31.2634 69.7609 30.7114 69.4249 29.9914C69.1049 29.2714 68.9449 28.3994 68.9449 27.3754V22.7194C68.9449 21.6954 69.1049 20.8234 69.4249 20.1034C69.7609 19.3834 70.2569 18.8394 70.9129 18.4714C71.5689 18.0874 72.4009 17.8954 73.4089 17.8954C74.4169 17.8954 75.2489 18.0874 75.9049 18.4714C76.5769 18.8394 77.0729 19.3834 77.3929 20.1034C77.7289 20.8234 77.8969 21.6954 77.8969 22.7194V27.3754C77.8969 28.3994 77.7289 29.2714 77.3929 29.9914C77.0729 30.7114 76.5769 31.2634 75.9049 31.6474C75.2489 32.0154 74.4169 32.1994 73.4089 32.1994ZM73.4329 29.9434C73.8009 29.9434 74.0729 29.8394 74.2489 29.6314C74.4249 29.4234 74.5369 29.1434 74.5849 28.7914C74.6329 28.4234 74.6569 28.0234 74.6569 27.5914V22.5034C74.6569 22.0714 74.6329 21.6794 74.5849 21.3274C74.5369 20.9754 74.4249 20.6954 74.2489 20.4874C74.0729 20.2634 73.8009 20.1514 73.4329 20.1514C73.0649 20.1514 72.7929 20.2634 72.6169 20.4874C72.4409 20.6954 72.3209 20.9754 72.2569 21.3274C72.2089 21.6794 72.1849 22.0714 72.1849 22.5034V27.5914C72.1849 28.0234 72.2089 28.4234 72.2569 28.7914C72.3209 29.1434 72.4409 29.4234 72.6169 29.6314C72.7929 29.8394 73.0649 29.9434 73.4329 29.9434ZM80.1308 31.9834V18.1114H83.2748V19.3114C83.7548 18.7994 84.2748 18.4314 84.8348 18.2074C85.3948 17.9674 85.9628 17.8474 86.5388 17.8474C87.0828 17.8474 87.5548 17.9834 87.9548 18.2554C88.3708 18.5274 88.6748 18.9594 88.8668 19.5514C89.3948 18.9434 89.9548 18.5114 90.5468 18.2554C91.1388 17.9834 91.7468 17.8474 92.3708 17.8474C92.8668 17.8474 93.3068 17.9754 93.6908 18.2314C94.0748 18.4714 94.3788 18.8394 94.6028 19.3354C94.8268 19.8154 94.9388 20.4234 94.9388 21.1594V31.9834H91.8188V21.4474C91.8188 20.9194 91.7308 20.5594 91.5548 20.3674C91.3788 20.1594 91.1308 20.0554 90.8108 20.0554C90.5548 20.0554 90.2668 20.1274 89.9468 20.2714C89.6428 20.4154 89.3628 20.6154 89.1068 20.8714C89.1068 20.9194 89.1068 20.9674 89.1068 21.0154C89.1068 21.0474 89.1068 21.0954 89.1068 21.1594V31.9834H86.0108V21.4474C86.0108 20.9194 85.9148 20.5594 85.7228 20.3674C85.5468 20.1594 85.2988 20.0554 84.9788 20.0554C84.7228 20.0554 84.4428 20.1274 84.1388 20.2714C83.8348 20.4154 83.5468 20.6154 83.2748 20.8714V31.9834H80.1308ZM97.3574 36.5434V18.1114H100.621V19.1674C101.021 18.7834 101.461 18.4794 101.941 18.2554C102.421 18.0154 102.925 17.8954 103.453 17.8954C104.077 17.8954 104.589 18.0394 104.989 18.3274C105.389 18.6154 105.701 18.9994 105.925 19.4794C106.149 19.9434 106.301 20.4474 106.381 20.9914C106.477 21.5194 106.525 22.0314 106.525 22.5274V27.2314C106.525 28.1434 106.413 28.9754 106.189 29.7274C105.981 30.4794 105.637 31.0794 105.157 31.5274C104.693 31.9754 104.069 32.1994 103.285 32.1994C102.789 32.1994 102.317 32.0794 101.869 31.8394C101.437 31.5994 101.021 31.2954 100.621 30.9274V36.5434H97.3574ZM102.061 29.9194C102.413 29.9194 102.669 29.8074 102.829 29.5834C103.005 29.3434 103.117 29.0314 103.165 28.6474C103.229 28.2474 103.261 27.8154 103.261 27.3514V22.3834C103.261 21.9514 103.229 21.5674 103.165 21.2314C103.101 20.8794 102.981 20.5994 102.805 20.3914C102.629 20.1834 102.373 20.0794 102.037 20.0794C101.781 20.0794 101.525 20.1434 101.269 20.2714C101.029 20.3834 100.813 20.5194 100.621 20.6794V29.4394C100.829 29.5834 101.053 29.7034 101.293 29.7994C101.533 29.8794 101.789 29.9194 102.061 29.9194ZM111.459 32.1994C110.835 32.1994 110.299 32.0394 109.851 31.7194C109.403 31.3834 109.059 30.9674 108.819 30.4714C108.579 29.9594 108.459 29.4314 108.459 28.8874C108.459 28.0234 108.619 27.2954 108.939 26.7034C109.259 26.1114 109.683 25.6154 110.211 25.2154C110.739 24.8154 111.339 24.4714 112.011 24.1834C112.683 23.8794 113.363 23.6074 114.051 23.3674V22.1674C114.051 21.7674 114.019 21.4314 113.955 21.1594C113.907 20.8874 113.803 20.6794 113.643 20.5354C113.499 20.3914 113.267 20.3194 112.947 20.3194C112.675 20.3194 112.451 20.3834 112.275 20.5114C112.115 20.6394 111.995 20.8234 111.915 21.0634C111.851 21.2874 111.811 21.5514 111.795 21.8554L111.747 22.6954L108.651 22.5754C108.699 20.9754 109.091 19.7994 109.827 19.0474C110.579 18.2794 111.715 17.8954 113.235 17.8954C114.627 17.8954 115.635 18.2794 116.259 19.0474C116.899 19.8154 117.219 20.8554 117.219 22.1674V28.5754C117.219 29.0874 117.227 29.5514 117.243 29.9674C117.275 30.3834 117.307 30.7594 117.339 31.0954C117.387 31.4314 117.427 31.7274 117.459 31.9834H114.531C114.483 31.6634 114.419 31.3034 114.339 30.9034C114.275 30.4874 114.227 30.1834 114.195 29.9914C114.035 30.5514 113.731 31.0634 113.283 31.5274C112.835 31.9754 112.227 32.1994 111.459 32.1994ZM112.659 29.7754C112.867 29.7754 113.059 29.7274 113.235 29.6314C113.427 29.5194 113.595 29.3914 113.739 29.2474C113.883 29.1034 113.987 28.9754 114.051 28.8634V24.9994C113.699 25.2074 113.363 25.4154 113.043 25.6234C112.739 25.8314 112.467 26.0634 112.227 26.3194C112.003 26.5594 111.827 26.8234 111.699 27.1114C111.587 27.3994 111.531 27.7354 111.531 28.1194C111.531 28.6314 111.627 29.0394 111.819 29.3434C112.027 29.6314 112.307 29.7754 112.659 29.7754ZM119.623 31.9834V18.1114H122.887V19.5034C123.383 19.0234 123.903 18.6394 124.447 18.3514C125.007 18.0474 125.607 17.8954 126.247 17.8954C126.823 17.8954 127.279 18.0394 127.615 18.3274C127.951 18.5994 128.199 18.9674 128.359 19.4314C128.519 19.8954 128.599 20.3994 128.599 20.9434V31.9834H125.335V21.5914C125.335 21.1754 125.271 20.8554 125.143 20.6314C125.015 20.4074 124.767 20.2954 124.399 20.2954C124.175 20.2954 123.927 20.3594 123.655 20.4874C123.399 20.6154 123.143 20.7754 122.887 20.9674V31.9834H119.623ZM131.086 35.7514V33.3994C131.646 33.3994 132.102 33.3674 132.454 33.3034C132.806 33.2394 133.062 33.1274 133.222 32.9674C133.382 32.8074 133.462 32.5834 133.462 32.2954C133.462 32.0874 133.406 31.7594 133.294 31.3114C133.198 30.8634 133.086 30.3754 132.958 29.8474L129.91 18.1114H133.078L134.878 27.2554L136.438 18.1114H139.582L136.342 32.5354C136.166 33.3514 135.87 33.9914 135.454 34.4554C135.038 34.9194 134.518 35.2474 133.894 35.4394C133.27 35.6474 132.542 35.7514 131.71 35.7514H131.086ZM147.144 31.9834V12.5434H150.696V29.5354H155.4V31.9834H147.144ZM161.229 32.1994C160.221 32.1994 159.389 32.0154 158.733 31.6474C158.077 31.2634 157.581 30.7114 157.245 29.9914C156.925 29.2714 156.765 28.3994 156.765 27.3754V22.7194C156.765 21.6954 156.925 20.8234 157.245 20.1034C157.581 19.3834 158.077 18.8394 158.733 18.4714C159.389 18.0874 160.221 17.8954 161.229 17.8954C162.237 17.8954 163.069 18.0874 163.725 18.4714C164.397 18.8394 164.893 19.3834 165.213 20.1034C165.549 20.8234 165.717 21.6954 165.717 22.7194V27.3754C165.717 28.3994 165.549 29.2714 165.213 29.9914C164.893 30.7114 164.397 31.2634 163.725 31.6474C163.069 32.0154 162.237 32.1994 161.229 32.1994ZM161.253 29.9434C161.621 29.9434 161.893 29.8394 162.069 29.6314C162.245 29.4234 162.357 29.1434 162.405 28.7914C162.453 28.4234 162.477 28.0234 162.477 27.5914V22.5034C162.477 22.0714 162.453 21.6794 162.405 21.3274C162.357 20.9754 162.245 20.6954 162.069 20.4874C161.893 20.2634 161.621 20.1514 161.253 20.1514C160.885 20.1514 160.613 20.2634 160.437 20.4874C160.261 20.6954 160.141 20.9754 160.077 21.3274C160.029 21.6794 160.005 22.0714 160.005 22.5034V27.5914C160.005 28.0234 160.029 28.4234 160.077 28.7914C160.141 29.1434 160.261 29.4234 160.437 29.6314C160.613 29.8394 160.885 29.9434 161.253 29.9434ZM172.031 36.5434C171.087 36.5434 170.255 36.4474 169.535 36.2554C168.815 36.0634 168.255 35.7674 167.855 35.3674C167.455 34.9674 167.255 34.4474 167.255 33.8074C167.255 33.3754 167.343 32.9834 167.519 32.6314C167.711 32.2954 167.967 31.9994 168.287 31.7434C168.607 31.4874 168.951 31.2714 169.319 31.0954C168.791 30.9514 168.383 30.7194 168.095 30.3994C167.823 30.0794 167.687 29.6954 167.687 29.2474C167.687 28.7034 167.823 28.2394 168.095 27.8554C168.367 27.4714 168.743 27.0634 169.223 26.6314C168.727 26.2314 168.351 25.7354 168.095 25.1434C167.855 24.5354 167.735 23.7434 167.735 22.7674C167.735 21.7114 167.903 20.8234 168.239 20.1034C168.591 19.3674 169.095 18.8154 169.751 18.4474C170.423 18.0794 171.239 17.8954 172.199 17.8954C172.935 17.8954 173.551 18.0074 174.047 18.2314C174.543 18.4394 174.951 18.7594 175.271 19.1914C175.399 18.9994 175.623 18.7594 175.943 18.4714C176.263 18.1834 176.631 17.9434 177.047 17.7514L177.479 17.5594L178.271 19.3114C178.095 19.3594 177.855 19.4394 177.551 19.5514C177.263 19.6634 176.975 19.7834 176.687 19.9114C176.399 20.0394 176.175 20.1514 176.015 20.2474C176.159 20.5674 176.279 20.9674 176.375 21.4474C176.471 21.9274 176.519 22.3834 176.519 22.8154C176.519 23.7914 176.367 24.6394 176.063 25.3594C175.759 26.0794 175.287 26.6394 174.647 27.0394C174.023 27.4234 173.207 27.6154 172.199 27.6154C171.863 27.6154 171.535 27.5914 171.215 27.5434C170.895 27.4794 170.599 27.4074 170.327 27.3274C170.231 27.4714 170.135 27.6234 170.039 27.7834C169.959 27.9434 169.919 28.1114 169.919 28.2874C169.919 28.4634 170.015 28.6074 170.207 28.7194C170.399 28.8314 170.719 28.9114 171.167 28.9594L174.095 29.2474C175.231 29.3594 176.071 29.7194 176.615 30.3274C177.159 30.9194 177.431 31.7274 177.431 32.7514C177.431 33.5834 177.239 34.2794 176.855 34.8394C176.487 35.3994 175.903 35.8234 175.103 36.1114C174.319 36.3994 173.295 36.5434 172.031 36.5434ZM172.391 34.0954C173.287 34.0954 173.959 34.0074 174.407 33.8314C174.855 33.6554 175.079 33.3354 175.079 32.8714C175.079 32.6154 175.023 32.4074 174.911 32.2474C174.799 32.0874 174.599 31.9594 174.311 31.8634C174.023 31.7514 173.615 31.6714 173.087 31.6234L170.711 31.4074C170.535 31.5514 170.375 31.7034 170.231 31.8634C170.103 32.0074 169.999 32.1674 169.919 32.3434C169.839 32.5194 169.799 32.7034 169.799 32.8954C169.799 33.2954 169.991 33.5914 170.375 33.7834C170.759 33.9914 171.431 34.0954 172.391 34.0954ZM172.199 25.5274C172.487 25.5274 172.719 25.4794 172.895 25.3834C173.071 25.2714 173.207 25.1034 173.303 24.8794C173.399 24.6394 173.463 24.3434 173.495 23.9914C173.527 23.6394 173.543 23.2314 173.543 22.7674C173.543 22.3034 173.527 21.8954 173.495 21.5434C173.463 21.1914 173.399 20.8954 173.303 20.6554C173.223 20.4154 173.095 20.2394 172.919 20.1274C172.743 20.0154 172.503 19.9594 172.199 19.9594C171.911 19.9594 171.671 20.0154 171.479 20.1274C171.303 20.2394 171.167 20.4154 171.071 20.6554C170.991 20.8794 170.927 21.1674 170.879 21.5194C170.847 21.8714 170.831 22.2874 170.831 22.7674C170.831 23.2154 170.847 23.6154 170.879 23.9674C170.911 24.3034 170.975 24.5914 171.071 24.8314C171.167 25.0554 171.303 25.2314 171.479 25.3594C171.671 25.4714 171.911 25.5274 172.199 25.5274ZM183.354 32.1994C182.346 32.1994 181.514 32.0154 180.858 31.6474C180.202 31.2634 179.706 30.7114 179.37 29.9914C179.05 29.2714 178.89 28.3994 178.89 27.3754V22.7194C178.89 21.6954 179.05 20.8234 179.37 20.1034C179.706 19.3834 180.202 18.8394 180.858 18.4714C181.514 18.0874 182.346 17.8954 183.354 17.8954C184.362 17.8954 185.194 18.0874 185.85 18.4714C186.522 18.8394 187.018 19.3834 187.338 20.1034C187.674 20.8234 187.842 21.6954 187.842 22.7194V27.3754C187.842 28.3994 187.674 29.2714 187.338 29.9914C187.018 30.7114 186.522 31.2634 185.85 31.6474C185.194 32.0154 184.362 32.1994 183.354 32.1994ZM183.378 29.9434C183.746 29.9434 184.018 29.8394 184.194 29.6314C184.37 29.4234 184.482 29.1434 184.53 28.7914C184.578 28.4234 184.602 28.0234 184.602 27.5914V22.5034C184.602 22.0714 184.578 21.6794 184.53 21.3274C184.482 20.9754 184.37 20.6954 184.194 20.4874C184.018 20.2634 183.746 20.1514 183.378 20.1514C183.01 20.1514 182.738 20.2634 182.562 20.4874C182.386 20.6954 182.266 20.9754 182.202 21.3274C182.154 21.6794 182.13 22.0714 182.13 22.5034V27.5914C182.13 28.0234 182.154 28.4234 182.202 28.7914C182.266 29.1434 182.386 29.4234 182.562 29.6314C182.738 29.8394 183.01 29.9434 183.378 29.9434Z" fill="#1F2937"/>
</svg>
