<svg id="Layer_1" data-name="Layer 1" xmlns="http://www.w3.org/2000/svg" xmlns:xlink="http://www.w3.org/1999/xlink" viewBox="0 0 1200 299.79"><defs><style>.cls-1{fill-rule:evenodd;}.cls-2{fill:url(#circle);}.cls-3{fill:url(#Square_2);}.cls-4{fill:url(#triangle);}</style><linearGradient id="circle" x1="213.37" y1="118.35" x2="178.09" y2="179.46" gradientUnits="userSpaceOnUse"><stop offset="0" stop-color="#cc9300"/><stop offset="0.47" stop-color="#ea433a"/><stop offset="1" stop-color="#b327bf"/></linearGradient><linearGradient id="Square_2" x1="122.45" y1="66.58" x2="93.81" y2="145.28" gradientUnits="userSpaceOnUse"><stop offset="0" stop-color="#cc9300"/><stop offset="0.26" stop-color="#ea433a"/><stop offset="0.47" stop-color="#b327bf"/><stop offset="0.76" stop-color="#66f"/><stop offset="1" stop-color="#00bf9a"/></linearGradient><linearGradient id="triangle" x1="102.89" y1="234.83" x2="153.68" y2="182.24" gradientUnits="userSpaceOnUse"><stop offset="0" stop-color="#b327bf"/><stop offset="0.47" stop-color="#66f"/><stop offset="1" stop-color="#00c09a"/></linearGradient></defs><title>Artboard 1</title><path d="M363.8,199H345.56l41-113.93h19.86l41,113.93H429.17l-10.41-30.16h-44.5Zm15.47-44.62h34.49L397,105.77h-.89Z"/><path d="M461.23,231.05V113.56h16.25v13.85h1.39a52.41,52.41,0,0,1,4.2-6.17,23.37,23.37,0,0,1,7.56-6.15q4.88-2.64,12.77-2.64a33.21,33.21,0,0,1,18.44,5.23,35.52,35.52,0,0,1,12.77,15.07q4.67,9.85,4.67,23.7t-4.62,23.72A35.47,35.47,0,0,1,522,195.39a32.88,32.88,0,0,1-18.41,5.28c-5.2,0-9.42-.87-12.69-2.61a24.34,24.34,0,0,1-7.7-6.12,44.42,44.42,0,0,1-4.31-6.23h-1v45.34Zm16.3-74.77q0,13.47,5.79,21.84t16.52,8.37a19.54,19.54,0,0,0,12.49-4,24.3,24.3,0,0,0,7.59-10.82,43.65,43.65,0,0,0,2.56-15.41A43,43,0,0,0,520,141.07a23.66,23.66,0,0,0-7.54-10.6,19.9,19.9,0,0,0-12.57-3.89q-10.9,0-16.61,8.15T477.53,156.28Z"/><path d="M592.65,200.73a39.24,39.24,0,0,1-21-5.51,37.08,37.08,0,0,1-13.91-15.43q-4.95-9.93-4.95-23.12t4.95-23.25A37.13,37.13,0,0,1,571.68,118a39.23,39.23,0,0,1,21-5.5q12.08,0,21,5.5a37.13,37.13,0,0,1,13.88,15.47q5,10,5,23.25t-5,23.12a37.08,37.08,0,0,1-13.88,15.43Q604.73,200.72,592.65,200.73Zm.06-14q7.85,0,12.93-4.12a24.28,24.28,0,0,0,7.57-11,47.15,47.15,0,0,0,0-30.12,24.49,24.49,0,0,0-7.57-11q-5.08-4.14-12.93-4.15t-13,4.15a24.5,24.5,0,0,0-7.62,11,46.43,46.43,0,0,0,0,30.12,24.29,24.29,0,0,0,7.62,11Q584.87,186.78,592.71,186.77Z"/><path d="M710.8,134.42l-15.07,2.67a18.92,18.92,0,0,0-5.37-7.87q-3.92-3.59-11.71-3.59a21,21,0,0,0-11.82,3.14q-4.76,3.15-4.7,8.1a8.29,8.29,0,0,0,3.14,6.92q3.19,2.6,10.27,4.26l13.57,3.12q23.37,5.39,23.36,23.14A22.33,22.33,0,0,1,708.05,188a29.49,29.49,0,0,1-12.29,9.35,45.73,45.73,0,0,1-18.22,3.39q-14.41,0-23.42-6.15A26,26,0,0,1,643,177.09l16.08-2.45q3,12.69,18.36,12.68,8.18,0,13.07-3.42t4.9-8.37q0-8.17-12.08-10.85l-14.46-3.17q-12-2.67-17.69-8.68a21.09,21.09,0,0,1-5.67-15.07,21.73,21.73,0,0,1,4.22-13.27,27.59,27.59,0,0,1,11.69-8.87,43.18,43.18,0,0,1,17.08-3.17q13.85,0,21.8,6A28.14,28.14,0,0,1,710.8,134.42Z"/><path d="M769.35,113.56v13.35H751.83v47q0,7.23,3.09,9.31a12.37,12.37,0,0,0,7.14,2.09,19,19,0,0,0,3.51-.28l2.33-.44,3,13.74a30.21,30.21,0,0,1-4.15,1.14,34.38,34.38,0,0,1-6.64.64,29.57,29.57,0,0,1-12.27-2.34,20.8,20.8,0,0,1-9.18-7.56q-3.48-5.11-3.47-12.85V126.91H722.68V113.56H735.2V93.09h16.63v20.47Z"/><path d="M786.45,199V113.56h16.08v13.57h.89a20.77,20.77,0,0,1,8.26-10.87,23.57,23.57,0,0,1,13.44-4c1.07,0,2.31,0,3.72.11s2.52.17,3.34.28v15.91a30.89,30.89,0,0,0-3.53-.64,36.62,36.62,0,0,0-5.15-.36A20.59,20.59,0,0,0,808.87,133a18.12,18.12,0,0,0-5.78,13.83V199Z"/><path d="M877.47,200.73a39.27,39.27,0,0,1-21-5.51,37.06,37.06,0,0,1-13.9-15.43q-5-9.93-5-23.12t5-23.25A37.1,37.1,0,0,1,856.49,118a39.27,39.27,0,0,1,21-5.5q12.06,0,21,5.5a37.17,37.17,0,0,1,13.87,15.47q5,10,5,23.25t-5,23.12a37.12,37.12,0,0,1-13.87,15.43A39.24,39.24,0,0,1,877.47,200.73Zm0-14q7.85,0,12.93-4.12a24.28,24.28,0,0,0,7.57-11,47,47,0,0,0,0-30.12,24.49,24.49,0,0,0-7.57-11q-5.09-4.14-12.93-4.15t-13,4.15a24.66,24.66,0,0,0-7.62,11,46.61,46.61,0,0,0,0,30.12,24.44,24.44,0,0,0,7.62,11Q869.68,186.78,877.52,186.77Z"/><path d="M932.37,231.05V113.56h16.25v13.85H950a52.41,52.41,0,0,1,4.2-6.17,23.48,23.48,0,0,1,7.56-6.15q4.88-2.64,12.77-2.64A33.21,33.21,0,0,1,993,117.68a35.52,35.52,0,0,1,12.77,15.07q4.66,9.85,4.67,23.7t-4.62,23.72a35.47,35.47,0,0,1-12.68,15.22,32.88,32.88,0,0,1-18.41,5.28c-5.2,0-9.42-.87-12.69-2.61a24.34,24.34,0,0,1-7.7-6.12,45.29,45.29,0,0,1-4.31-6.23h-1v45.34Zm16.3-74.77q0,13.47,5.79,21.84T971,186.49a19.54,19.54,0,0,0,12.49-4,24.22,24.22,0,0,0,7.59-10.82,43.65,43.65,0,0,0,2.56-15.41,42.78,42.78,0,0,0-2.53-15.21,23.66,23.66,0,0,0-7.54-10.6A19.9,19.9,0,0,0,971,126.58q-10.9,0-16.61,8.15T948.67,156.28Z"/><path d="M1042.56,148.27V199h-16.64V85.08h16.41v42.39h1.06a24.29,24.29,0,0,1,9.18-11q6.17-4,16.13-4,13.18,0,21.22,8.12t8,24.09V199h-16.63V146.66q0-9.41-4.84-14.6t-13.46-5.2a20.26,20.26,0,0,0-14.69,5.59Q1042.55,138,1042.56,148.27Z"/><path d="M1153.43,200.73q-12.57,0-21.69-5.45a36.34,36.34,0,0,1-14-15.33q-4.92-9.87-4.92-23.11a51.83,51.83,0,0,1,4.92-23.14,36.84,36.84,0,0,1,34.58-21.25,40.62,40.62,0,0,1,18.33,4.31,33.41,33.41,0,0,1,14.07,13.74q5.43,9.42,5.42,24.89v5.9h-60.74q.33,12.35,7,19t17.3,6.68a23.73,23.73,0,0,0,12.3-3.06,17,17,0,0,0,7.39-9.12l15.75,2.83a28.89,28.89,0,0,1-12.24,16.75Q1167.4,200.74,1153.43,200.73Zm-24-51.9h44.39q0-9.79-5.89-16.22t-15.52-6.42a21.82,21.82,0,0,0-11.77,3.14,23,23,0,0,0-7.95,8.29A25.28,25.28,0,0,0,1129.4,148.83Z"/><path class="cls-1" d="M196.22,280l-54.51,8.63c-37.17,5.89-51.27,4.15-66-1a76.69,76.69,0,0,1-36.52-26.53c-9.42-12.44-15.43-25.31-21.32-62.49l-8.63-54.5c-5.89-37.18-4.15-51.28,1-66A76.77,76.77,0,0,1,36.73,41.55C49.17,32.13,62,26.12,99.21,20.23l54.51-8.63c37.18-5.89,51.27-4.15,66,1A76.8,76.8,0,0,1,256.26,39.1c9.42,12.44,15.42,25.31,21.31,62.49l8.63,54.5c5.89,37.18,4.16,51.27-1,66a76.75,76.75,0,0,1-26.53,36.52C246.27,268.05,233.4,274.06,196.22,280Z"/><g id="Group-2-Copy-4"><g id="Group-Copy-5"><g id="Group-4-Copy-10"><g id="Group-21"><path id="Oval-Copy-84" class="cls-2" d="M201.27,183.89a35.42,35.42,0,1,0-40.17-29.5A35.24,35.24,0,0,0,201.27,183.89Zm-1.77-11.21a24.07,24.07,0,1,1,19.66-27.48A23.9,23.9,0,0,1,199.5,172.68Z"/><path id="Rectangle-Copy-64" class="cls-3" d="M86.91,142l52.55-8.32a5.67,5.67,0,0,0,4.72-6.49l-8.34-52.64a5.67,5.67,0,0,0-6.49-4.71L76.79,78.17a5.67,5.67,0,0,0-4.71,6.49l8.34,52.64A5.67,5.67,0,0,0,86.91,142Zm3.82-12.08L84.17,88.49l41.35-6.55,6.57,41.44Z"/><path id="Triangle-Copy-15" class="cls-4" d="M120.28,161.13,97.48,225a5.67,5.67,0,0,0,6.23,7.51l64.17-10.16a5.68,5.68,0,0,0,3.6-9.07l-41.37-53.68A5.67,5.67,0,0,0,120.28,161.13Zm7.19,13.59,29.19,37.88-45.28,7.18Z"/></g></g></g></g></svg>